<svg xmlns="http://www.w3.org/2000/svg" viewBox="0 0 1400 980">
  <defs>
    <linearGradient id="bg" x1="0" x2="1" y1="0" y2="1"><stop stop-color="#f7f5f0"/><stop offset=".5" stop-color="#ffffff"/><stop offset="1" stop-color="#dedbd2"/></linearGradient>
    <filter id="s" x="-20%" y="-20%" width="140%" height="140%"><feDropShadow dx="0" dy="24" stdDeviation="24" flood-color="#111" flood-opacity=".16"/></filter>
  </defs>
  <rect width="1400" height="980" fill="url(#bg)"/>
  <ellipse cx="670" cy="860" rx="520" ry="70" fill="#1a1a1a" opacity=".08"/>
  <g filter="url(#s)">
    <rect x="180" y="190" width="420" height="560" rx="34" fill="#fff" stroke="#d7d1c6"/>
    <rect x="230" y="250" width="320" height="270" rx="24" fill="#eee4d4"/>
    <circle cx="390" cy="360" r="78" fill="#cdbb9e"/>
    <path d="M280 585h220M280 635h150" stroke="#8d8172" stroke-width="18" stroke-linecap="round"/>
  </g>
  <g filter="url(#s)">
    <rect x="555" y="285" width="500" height="345" rx="32" fill="#fdfdfc" stroke="#d7d7d1"/>
    <rect x="610" y="345" width="390" height="205" rx="24" fill="#dde3e5"/>
    <path d="M690 445h230M725 495h160" stroke="#718088" stroke-width="18" stroke-linecap="round"/>
  </g>
  <g filter="url(#s)">
    <rect x="870" y="135" width="270" height="270" rx="36" fill="#fff" stroke="#d8d8d2"/>
    <circle cx="950" cy="220" r="45" fill="#eef0f1" stroke="#ccd2d5"/>
    <circle cx="1060" cy="220" r="45" fill="#e5e7e1" stroke="#ccd2d5"/>
    <rect x="930" y="300" width="150" height="48" rx="24" fill="#e9e4da"/>
  </g>
  <g filter="url(#s)">
    <path d="M925 570h170c52 0 95 43 95 95v115H830V665c0-52 43-95 95-95z" fill="#fff" stroke="#d7d3ca"/>
    <path d="M1190 660h70a62 62 0 0 1 0 124h-70" fill="none" stroke="#d7d3ca" stroke-width="26"/>
    <circle cx="1010" cy="690" r="46" fill="#e2ded5"/>
  </g>
</svg>
